<svg id="圖層_1" data-name="圖層 1" xmlns="http://www.w3.org/2000/svg" viewBox="0 0 728.92 707.46"><defs><style>.cls-1{fill:#6c9650;}</style></defs><title>logo--note</title><path class="cls-1" d="M203.61,445.45q-18.11-56.93-18.11-120.7,0-46.85,14.21-88.49t41.19-72.87q27-31.23,66.06-49.45T395,95.72q38.36,0,66.77,13.67a170.11,170.11,0,0,1,49.36,35.46,200,200,0,0,1,34.45,48.47c6.88,13.62,8.7,17.75,11.51,26.72a6.32,6.32,0,0,0,10.49,2.45l68.57-69.57a19.26,19.26,0,0,0-.5-27.6c-1-1-2.16-2-3.42-3.25a238.55,238.55,0,0,0-59-41,329.17,329.17,0,0,0-73.16-25.7,371.39,371.39,0,0,0-83.1-9.11,379,379,0,0,0-99.79,13,387.26,387.26,0,0,0-89.85,36.76A378.68,378.68,0,0,0,151.05,153a364.44,364.44,0,0,0-59,73.52,359.12,359.12,0,0,0-38,86.87A344.9,344.9,0,0,0,40.61,410q0,68.31,27,128.18c18,39.91,40.18,73.16,71,103.09l0,0a5.1,5.1,0,0,0,7.18,0l98.59-98.59a5.08,5.08,0,0,0,.53-6.52C226.28,509.64,214.47,479.56,203.61,445.45Z" transform="translate(-40.61 -46.27)"/><path class="cls-1" d="M76.09,753.69c-.52.38-3.41-2.05-2.72-2.72C265.54,561.45,747.11,77.79,764,60.31a1.1,1.1,0,0,1,1.13-.27c1.68.53,5.76,2.12,3.86,4.33C457,427.17,207.49,655.77,76.09,753.69Z" transform="translate(-40.61 -46.27)"/><path class="cls-1" d="M330.27,663.66a89,89,0,0,0,9.34-17.92,51.42,51.42,0,0,0,3.57-18.22c0-8.64-2.45-15.9-7.28-21.56-5-5.85-12.13-8.82-21.26-8.82a54.72,54.72,0,0,0-18.24,3.36,85.88,85.88,0,0,0-18,9,108.37,108.37,0,0,0-16.53,13.28,103.66,103.66,0,0,0-13.69,16.37,86.41,86.41,0,0,0-9.35,18.23,55.09,55.09,0,0,0-3.55,19c0,8.65,2.45,15.88,7.29,21.49,5,5.78,12.13,8.7,21.24,8.7A52.15,52.15,0,0,0,282.18,703a88.93,88.93,0,0,0,17.92-9.34,114.13,114.13,0,0,0,16.5-13.55A106.2,106.2,0,0,0,330.27,663.66ZM317.8,627.89a60,60,0,0,1-1.56,12.63,95.81,95.81,0,0,1-4.61,14.78,113.52,113.52,0,0,1-7.22,14.8,71.84,71.84,0,0,1-9.18,12.59,46.13,46.13,0,0,1-10.62,8.69,21.48,21.48,0,0,1-10.88,3.07,10.89,10.89,0,0,1-6.05-1.52,11.75,11.75,0,0,1-4-4.19,21.39,21.39,0,0,1-2.33-6.48,39.08,39.08,0,0,1-.76-7.56,58.4,58.4,0,0,1,1.74-13.49,92.16,92.16,0,0,1,4.95-14.86A95.4,95.4,0,0,1,275,632a76.46,76.46,0,0,1,9.83-12.19,49.86,49.86,0,0,1,11.11-8.47,24.73,24.73,0,0,1,11.33-3.21,7.86,7.86,0,0,1,4.85,1.32,11.49,11.49,0,0,1,3.31,4.16,21,21,0,0,1,1.85,6.47A59.86,59.86,0,0,1,317.8,627.89Z" transform="translate(-40.61 -46.27)"/><path class="cls-1" d="M397,695.21c-.15,0-.24-.45-.24-1.16,0-2.66,1.12-5.7,3.32-9,2.61-3.93,5.52-8.1,8.65-12.38s6.25-8.92,8.94-13.37a28.53,28.53,0,0,0,4.52-14.8,15.72,15.72,0,0,0-4.14-11c-2.84-3.09-6.9-4.65-12-4.65a31.17,31.17,0,0,0-16.39,5l-1.8,1.14,3-4.19-30.94,1.08-1.06,1.86c-6.33,11.07-12.85,22-19.38,32.6s-13.2,21.49-19.65,32.2l-1.66,2.75a2.1,2.1,0,0,0,1.86,3.17l24.07-.72,1-2c1.53-3,3.65-6.58,6.29-10.79s5.66-8.62,9-13.13,6.87-9.08,10.65-13.65a162.45,162.45,0,0,1,11-12.06,74.74,74.74,0,0,1,10-8.41c2.61-1.79,4.86-2.74,6.49-2.74a2.89,2.89,0,0,1,1.15.16c.06.07.17.17.17.61,0,2-1.14,4.67-3.28,7.76-2.61,3.76-5.53,7.79-8.66,11.95a149.11,149.11,0,0,0-9,13.34,29,29,0,0,0-4.51,14.87A17,17,0,0,0,378.56,701c3,3.46,7.41,5.21,13.23,5.21a29.58,29.58,0,0,0,16-4.83c4.74-3,10.47-8,17-15l.51-.53q-3.85,6.33-7.68,12.67L416,701.27a2.09,2.09,0,0,0,1.85,3.17l24.07-.72,1-2c1.54-3,3.66-6.59,6.3-10.79s5.66-8.62,9-13.13,6.88-9.08,10.65-13.65a162.45,162.45,0,0,1,11-12.06,74.74,74.74,0,0,1,10-8.41c2.61-1.79,4.86-2.74,6.49-2.74a2.89,2.89,0,0,1,1.15.16c.07.07.17.17.17.61,0,2-1.13,4.67-3.28,7.76-2.61,3.76-5.52,7.79-8.66,11.95a149.11,149.11,0,0,0-9,13.34,29,29,0,0,0-4.5,14.87A17,17,0,0,0,476.42,701c3,3.46,8.24,5.6,14.06,5.6,5.5,0,10.74-.43,15.83-3.63,4.73-3,10.46-8,17-15,5.32-5.58,10.41-11.29,15.11-17s8.59-10.37,11.78-14.17l1.42-1.7a2.09,2.09,0,0,0-.66-3.21L543.73,647l-1.94,2.38q-3.31,4-9.94,12.05c-4.36,5.27-9.2,10.75-14.39,16.3-6.52,6.88-11.73,11.63-15.46,14.09a30.62,30.62,0,0,1-5.66,3.16,1.37,1.37,0,0,1-1.67-.78c-1.08-2.53,1-5.8,3.25-9.22,2.61-3.93,5.52-8.1,8.65-12.38s6.25-8.92,8.95-13.37a28.6,28.6,0,0,0,4.51-14.8,15.72,15.72,0,0,0-4.14-11c-2.84-3.09-6.89-4.65-12-4.65a31.15,31.15,0,0,0-16.39,5c-.61.37-1.21.75-1.81,1.14l3-4.19-30.94,1.08-1.06,1.86q-4.17,7.29-8.44,14.49L445.87,647l-1.94,2.38q-3.31,4-9.94,12.05c-4.36,5.27-9.2,10.75-14.39,16.3-6.53,6.88-11.73,11.63-15.46,14.09C404.14,691.86,398.88,695.74,397,695.21Z" transform="translate(-40.61 -46.27)"/><path class="cls-1" d="M581.18,615.87C569.88,621.52,534,634,534,634l19.24,6.16,17-5.73c4-1.5,8.06-3.12,12-4.85l-48.52,75,7.31-.21c6.56-.19,13.38-.5,20.87-1l.65,0,12.06-18.77c1.57-2.61,3.15-5.22,4.78-7.87q7.36-12,15-24.11t15.47-24.4q7.83-12.27,15.22-24.08l1.75-2.8-6.74-5.21a4,4,0,0,0-4.93.31C607.41,602.42,588.43,612.24,581.18,615.87Z" transform="translate(-40.61 -46.27)"/><path class="cls-1" d="M700.52,648.85a2.83,2.83,0,0,0-4.25.28l-.69.9c-3.24,4.2-7.09,8.81-11.45,13.71s-8.9,9.6-13.58,14a75.15,75.15,0,0,1-17.78,12.81c-5.64,2.79-10.8,4.21-15.34,4.21-4.18,0-7.28-1.21-9.48-3.69s-3.46-6-3.46-10.35c0-.43,0-.87.06-1.33a2.82,2.82,0,0,1,2.22-2.51l4.09-.88c3.49-.75,7.29-1.7,11.3-2.83s8.14-2.47,12.17-4a65.21,65.21,0,0,0,11.47-5.49,35.15,35.15,0,0,0,8.78-7.46,16.28,16.28,0,0,0,3.91-10.56A13.64,13.64,0,0,0,672.41,634c-3.59-2.47-8.48-3.72-14.53-3.72A49.93,49.93,0,0,0,638,634.85a77.43,77.43,0,0,0-18.71,11.64A68.17,68.17,0,0,0,605,662.89a36.92,36.92,0,0,0-5.92,19.53c0,7.64,2.41,14,7.17,18.89s14,8.88,22.05,8.88c7.3,0,15.64-.59,23.84-3.62S669,698,677.87,690a199.83,199.83,0,0,0,15.88-16.17c4.4-5.08,8.58-10.3,12.44-15.53l2-2.66Zm-72.3,17.79c.51-1,1.1-2.1,1.74-3.21a81.84,81.84,0,0,1,7.93-11.26,51.92,51.92,0,0,1,9.35-8.85c2.87-2.08,5.46-3.14,7.7-3.14.54,0,1,.1,1,.08a2.49,2.49,0,0,1,.11.88,13.77,13.77,0,0,1-2.52,7.23,36.57,36.57,0,0,1-7.6,8.32A59.72,59.72,0,0,1,634.6,664,51.16,51.16,0,0,1,628.22,666.64Z" transform="translate(-40.61 -46.27)"/></svg>